<svg xmlns="http://www.w3.org/2000/svg" width="64" height="64" viewBox = "0 0 64 64"><defs></defs><g transform="matrix(6.249587 0 0 6.249587 -228.82126 -169.26286)"><path d="M46.568 31.918l-4.834-4.834-4.834 4.834a.406.406 0 0 0 0 .573l4.834 4.834 4.834-4.834a.406.406 0 0 0 0-.573zm-4.834 1.8l-1.514-1.514 1.514-1.514 1.514 1.514z" fill="#2684ff"/><path d="M41.734 30.7a2.549 2.549 0 0 1-.011-3.594L38.4 30.408l1.803 1.803z" fill="url(#C)"/><path d="M43.252 32.2l-1.518 1.518a2.549 2.549 0 0 1 0 3.606l3.32-3.32z" fill="url(#B)"/></g></svg>