<?xml version="1.0" encoding="UTF-8"?>
<svg version="1.1" xmlns="http://www.w3.org/2000/svg" width="204" height="192" viewBox="0 0 204 192">
  <!-- Background Shape -->
  <path d="M0 0 C67.32 0 134.64 0 204 0 C204 63.36 204 126.72 204 192 C136.68 192 69.36 192 0 192 C0 128.64 0 65.28 0 0 Z" fill="#000000"/>
  
  <!-- White Patch -->
  <path d="M123 46 C129.47 51.25 133.71 56.63 135 65 C135.67 74.05 135.69 82.63 129.62 89.81 C128.76 90.53 127.89 91.26 127 92 C126.24 92.68 125.47 93.36 124.69 94.06 C116.75 99.79 109.91 101.4 100 100 C96.6 98.82 93.29 97.46 90 96 C90.02 96.65 90.04 97.29 90.06 97.96 C90.15 100.89 90.2 103.81 90.25 106.75 C90.3 108.27 90.3 108.27 90.35 109.83 C90.45 117.35 90.45 117.35 88.14 120.67 C85.44 122.35 84.13 122.62 81 122 C78.47 119.97 77.16 118.76 76.49 115.54 C76.48 114.61 76.47 113.69 76.47 112.75 C76.46 111.7 76.46 110.65 76.46 109.57 C76.46 108.44 76.46 107.31 76.47 106.15 C76.47 104.98 76.48 103.81 76.48 102.61 C76.49 100.13 76.49 97.65 76.48 95.18 C76.48 91.41 76.5 87.65 76.53 83.88 C76.53 81.47 76.53 79.06 76.53 76.65 C76.53 75.53 76.54 74.41 76.54 73.26 C76.55 63.02 80.02 55.38 87 48 C96.54 39.12 112.22 39.96 123 46 Z" fill="#F7F7F7"/>
  
  <!-- Black Patch -->
  <path d="M111 55 C116.35 56.58 119.44 60.07 122.11 64.86 C123.93 69.24 123.9 72.74 122.15 77.14 C119.67 81.68 116.88 84.36 112.11 86.38 C107.26 87.81 103.24 87.29 98.31 86.13 C93.5 83.04 91.57 79.44 90 74 C89.51 68.48 89.89 64.44 93.31 60 C94.2 59.34 95.09 58.68 96 58 C96.61 57.47 97.21 56.94 97.84 56.4 C101.86 53.79 106.39 54.43 111 55 Z" fill="#030303"/>
  
  <!-- Bottom Patch -->
  <path d="M65 129 C67.02 129.95 69.02 130.95 71 132 C80.71 134.51 90.53 133.71 99.69 129.91 C102.66 128.74 104.86 128.39 108 129 C110.44 130.56 110.44 130.56 112 133 C112.13 136.5 112.13 136.5 111 140 C102.18 147.09 88.95 147.9 78 147 C74.6 146.54 71.32 145.86 68 145 C67.1 144.77 66.19 144.54 65.26 144.3 C57.48 142.16 57.48 142.16 55 139 C54.46 135.37 54.54 133.68 56.62 130.63 C59.73 128.5 61.29 128.48 65 129 Z" fill="#F6F6F6"/>
  
  <!-- Small Gray Patch -->
  <path d="M91 45 C91.66 45.33 92.32 45.66 93 46 C89.37 49.63 85.74 53.26 82 57 C82 52.84 84.25 50.85 87 48 C89.31 46.12 89.31 46.12 91 45 Z" fill="#D0D0D0"/>
</svg>
